<?xml version="1.0" standalone="no"?>
<!DOCTYPE svg PUBLIC "-//W3C//DTD SVG 20010904//EN"
 "http://www.w3.org/TR/2001/REC-SVG-20010904/DTD/svg10.dtd">
<svg version="1.0" xmlns="http://www.w3.org/2000/svg"
 width="16.000000pt" height="16.000000pt" viewBox="0 0 16.000000 16.000000"
 preserveAspectRatio="xMidYMid meet">
<metadata>
Created by potrace 1.11, written by Peter Selinger 2001-2013
</metadata>
<g transform="translate(0.000000,16.000000) scale(0.006250,-0.006250)"
fill="#000000" stroke="none">
<path d="M1579 2500 c-14 -16 -24 -32 -21 -34 3 -3 -3 -8 -12 -12 -9 -3 -14
-9 -11 -14 2 -4 -3 -16 -13 -26 -9 -11 -18 -26 -20 -34 -2 -8 -7 -16 -12 -18
-5 -2 -6 -10 -3 -18 3 -8 0 -14 -7 -14 -6 0 -9 -4 -5 -10 3 -5 -3 -18 -14 -29
-14 -14 -16 -21 -8 -25 9 -5 9 -7 -1 -12 -6 -3 -10 -10 -6 -15 3 -5 0 -9 -6
-9 -7 0 -9 -8 -5 -19 4 -13 0 -23 -12 -30 -13 -8 -14 -10 -4 -11 11 0 10 -4
-5 -16 -10 -8 -13 -13 -6 -9 8 4 12 -1 12 -14 0 -19 -11 -26 -33 -22 -5 1 -6
-3 -2 -9 3 -6 11 -7 17 -4 6 4 5 -2 -2 -15 -6 -12 -16 -18 -22 -15 -7 4 -8 3
-4 -5 4 -6 12 -9 17 -6 16 11 10 -7 -8 -22 -10 -8 -12 -12 -5 -8 17 8 15 -6
-3 -33 -15 -20 -15 -21 2 -15 14 5 16 3 6 -7 -6 -7 -9 -19 -6 -26 4 -10 0 -12
-13 -8 -17 6 -17 5 1 -9 12 -10 15 -16 7 -17 -7 0 -10 -5 -6 -11 4 -7 1 -10
-7 -7 -8 3 -13 11 -11 17 1 7 -2 10 -8 6 -5 -3 -29 4 -52 16 -24 12 -50 26
-59 30 -16 7 -82 26 -124 36 -38 8 -168 10 -200 3 -29 -7 -37 -3 -81 40 -103
98 -256 191 -429 260 -90 36 -224 72 -272 73 -39 1 -59 -19 -40 -42 6 -7 12
-21 12 -30 0 -9 6 -15 13 -13 8 1 11 -2 8 -7 -4 -5 -3 -11 1 -14 5 -2 2 -2 -4
-1 -7 2 -13 -1 -13 -6 0 -6 7 -11 15 -11 8 -1 20 -3 25 -4 6 -1 12 -3 15 -4 3
0 1 -10 -5 -21 -6 -12 -16 -18 -23 -14 -7 4 -8 3 -4 -1 7 -9 23 -13 59 -17 12
-2 14 -6 7 -14 -7 -8 -6 -14 1 -19 6 -3 7 -11 4 -17 -5 -7 -2 -8 7 -2 24 15
38 13 34 -6 -2 -10 3 -21 10 -24 10 -3 12 0 9 12 -3 9 1 6 9 -8 9 -14 19 -24
24 -23 4 1 6 -6 5 -15 -3 -13 -1 -14 11 -4 12 11 18 8 35 -12 10 -14 22 -23
25 -20 2 3 14 -6 25 -20 11 -15 25 -26 31 -26 6 0 11 -4 11 -10 0 -5 4 -9 9
-7 5 1 29 -11 54 -26 33 -21 44 -34 42 -48 -2 -11 0 -17 6 -14 5 4 7 11 4 16
-4 5 1 9 11 9 12 0 15 -6 11 -21 -5 -20 -5 -20 13 -4 18 16 20 16 26 1 3 -9
10 -16 16 -16 5 0 6 5 2 11 -3 6 5 4 18 -5 14 -9 27 -13 31 -10 3 3 4 -2 3
-12 -2 -10 -8 -20 -14 -22 -7 -2 -10 -8 -6 -13 3 -5 -1 -12 -10 -15 -8 -3 -12
-12 -9 -20 3 -8 0 -14 -6 -14 -6 0 -10 -3 -10 -7 4 -22 -2 -33 -13 -27 -10 6
-10 4 0 -8 10 -13 10 -19 -3 -31 -8 -9 -14 -20 -13 -24 3 -12 -24 -63 -34 -63
-4 0 -8 -4 -8 -9 0 -6 -10 -27 -22 -47 -12 -21 -23 -44 -24 -53 -1 -9 -5 -28
-9 -43 -5 -19 -3 -28 5 -28 6 0 9 -4 5 -9 -3 -5 -1 -12 5 -16 6 -4 8 -10 5
-15 -3 -5 -1 -19 6 -31 8 -15 8 -19 0 -15 -6 4 -11 2 -11 -3 0 -6 4 -11 10
-11 5 0 7 -7 4 -15 -5 -12 -2 -14 12 -8 17 6 17 5 5 -10 -12 -15 -9 -21 11
-18 4 0 5 -6 2 -14 -4 -8 -10 -15 -16 -15 -5 0 -6 5 -3 11 5 7 2 7 -11 0 -11
-5 -44 -18 -74 -27 -39 -12 -67 -29 -98 -61 -23 -24 -40 -48 -37 -52 3 -5 -3
-12 -12 -15 -12 -5 -14 -9 -5 -18 9 -9 7 -17 -8 -33 -16 -17 -17 -22 -6 -22 8
0 13 4 10 9 -3 4 0 8 6 8 7 0 9 -7 6 -16 -4 -9 -1 -23 5 -30 6 -8 8 -14 4 -14
-4 0 -14 8 -21 17 -12 16 -12 16 -7 -5 5 -19 14 -26 33 -24 3 0 6 -8 6 -19 0
-19 -1 -19 -13 -3 -7 10 -13 13 -13 7 0 -6 7 -16 15 -23 8 -7 13 -15 11 -19
-3 -4 7 -8 22 -9 14 -1 35 -11 47 -22 12 -11 25 -17 29 -13 4 4 4 -1 0 -12 -7
-18 -6 -18 9 -6 15 12 17 12 11 -4 -6 -14 -4 -16 7 -11 8 4 6 1 -3 -7 -19 -15
-25 -32 -8 -22 6 3 7 -1 4 -9 -3 -9 -10 -14 -14 -11 -5 3 -6 -4 -3 -15 3 -12
-2 -29 -13 -42 -13 -15 -14 -19 -4 -14 8 4 6 0 -4 -8 -11 -9 -15 -16 -8 -16 9
0 9 -6 0 -25 -6 -14 -15 -25 -20 -25 -4 0 -7 -3 -7 -7 4 -24 -2 -53 -10 -49
-5 4 -7 -3 -4 -14 3 -11 1 -20 -5 -20 -5 0 -9 -8 -8 -17 0 -11 -5 -17 -13 -15
-12 3 -12 1 0 -14 12 -16 12 -17 -2 -12 -9 4 -16 1 -16 -8 0 -7 4 -11 9 -8 4
3 5 -2 2 -11 -4 -9 -13 -14 -22 -10 -11 4 -12 2 -5 -7 12 -16 13 -48 1 -48 -4
0 -8 -6 -8 -14 0 -8 -3 -16 -7 -19 -5 -2 -2 -2 5 -1 6 2 12 -4 12 -12 0 -8 -4
-13 -8 -10 -4 2 -8 -4 -8 -14 0 -10 5 -18 11 -17 5 1 9 -4 7 -11 -1 -8 7 -30
19 -50 13 -21 19 -34 15 -30 -5 4 -13 2 -20 -3 -6 -5 -33 -23 -60 -40 -44 -28
-48 -32 -44 -64 3 -29 2 -32 -11 -22 -12 10 -12 9 -1 -10 8 -12 19 -19 25 -15
15 9 36 11 30 3 -2 -4 9 -8 25 -8 16 0 27 4 24 9 -8 12 19 5 29 -7 4 -6 11 -4
17 5 8 12 11 13 19 1 6 -9 10 -10 12 -2 2 6 22 13 44 14 22 1 46 6 52 10 8 5
13 3 13 -5 0 -9 3 -9 8 -2 4 6 19 10 34 10 14 -1 24 2 22 6 -3 4 1 8 9 8 8 0
26 9 41 21 14 11 30 17 36 14 5 -3 10 -1 10 6 0 10 3 10 11 2 9 -9 16 -9 30 0
15 9 24 9 39 -1 15 -9 19 -9 18 0 -4 15 75 14 80 -1 2 -6 8 -11 13 -11 6 0 7
5 4 10 -7 11 23 9 43 -4 7 -4 19 -5 27 -2 9 3 15 -1 15 -9 0 -7 4 -17 10 -20
5 -3 7 0 4 8 -3 10 2 13 18 11 13 -1 27 -3 31 -3 5 -1 5 -7 1 -13 -6 -10 -4
-10 7 0 18 17 34 15 20 -2 -9 -11 -9 -16 0 -22 7 -4 9 -3 6 3 -4 6 0 13 8 17
8 3 15 0 15 -7 0 -8 4 -6 10 3 5 8 10 10 10 4 0 -7 9 -14 20 -17 11 -3 18 -1
14 4 -3 5 2 6 10 3 9 -3 16 -13 16 -21 0 -8 -4 -11 -10 -8 -5 3 -10 2 -10 -3
0 -5 12 -10 26 -10 18 0 22 3 13 9 -8 5 -10 9 -6 9 17 0 56 -33 50 -43 -3 -6
-1 -7 6 -3 6 4 9 12 6 17 -4 5 -1 9 4 9 6 0 11 -4 11 -9 0 -5 10 -7 22 -3 14
3 19 1 14 -6 -3 -6 -2 -13 3 -16 5 -4 13 -1 17 5 5 8 3 9 -6 4 -9 -5 -11 -4
-6 3 5 8 15 8 32 2 14 -6 30 -8 34 -5 5 3 7 -5 5 -17 -4 -21 -3 -21 8 -6 12
15 14 15 25 -3 7 -10 18 -19 25 -19 8 0 7 4 -3 10 -8 5 -13 10 -10 11 3 0 13
2 23 4 9 2 15 -1 11 -6 -6 -10 -3 -11 51 -11 74 0 97 13 90 50 -5 33 -45 68
-119 105 l-56 28 17 26 c12 17 17 48 17 98 1 66 3 72 21 70 11 -1 26 -3 33 -4
7 0 10 -6 7 -11 -4 -6 5 -5 20 2 29 13 33 28 47 166 1 9 5 9 12 2 5 -5 26 -10
46 -10 34 1 37 4 93 100 32 55 63 100 68 100 6 0 7 5 4 10 -3 6 -1 10 4 10 6
0 11 -4 11 -9 0 -5 13 -8 29 -7 16 1 29 -2 28 -7 -1 -5 4 -12 12 -15 10 -3 11
0 5 9 -7 12 -5 12 9 1 9 -8 22 -11 29 -7 7 4 5 0 -5 -8 -17 -14 -17 -15 7 -13
13 0 22 4 19 9 -2 4 1 7 6 7 6 0 11 -5 11 -11 0 -6 6 -9 13 -6 6 2 26 -1 44
-8 17 -8 35 -10 39 -7 5 4 3 0 -4 -10 -10 -12 -10 -18 -1 -24 7 -4 9 -3 6 3
-4 6 0 13 8 17 8 3 15 0 15 -6 0 -6 6 -5 17 3 13 11 15 11 9 1 -5 -9 -3 -13 5
-11 31 4 41 -1 35 -18 -5 -16 -5 -16 7 -2 8 11 22 15 44 12 31 -5 42 4 193
154 88 88 160 167 160 177 0 42 -354 155 -570 182 -24 3 -47 7 -51 9 -3 3 -34
5 -67 6 -34 1 -62 4 -62 6 0 2 11 24 25 49 14 25 25 51 25 58 0 8 -11 21 -25
30 -14 9 -25 25 -25 36 0 10 -5 22 -12 26 -24 15 -158 -2 -257 -32 -23 -7 -24
-6 -16 32 4 21 9 52 12 68 3 16 9 41 15 55 6 14 13 55 15 91 4 45 15 86 38
135 90 191 136 552 95 745 -11 51 -16 60 -34 60 -11 -1 -33 -14 -47 -30z
m-1409 -290 c0 -5 -5 -10 -11 -10 -5 0 -7 5 -4 10 3 6 8 10 11 10 2 0 4 -4 4
-10z m40 -50 c0 -5 -2 -10 -4 -10 -3 0 -8 5 -11 10 -3 6 -1 10 4 10 6 0 11 -4
11 -10z m1353 -1212 c-9 -15 -11 -26 -22 -91 0 -5 -6 -5 -13 -1 -7 5 -8 3 -2
-7 12 -19 14 -39 4 -39 -4 0 -11 -7 -14 -16 -3 -8 -2 -12 4 -9 6 3 10 1 10 -4
0 -6 -6 -11 -12 -11 -10 0 -10 -2 0 -9 24 -15 -15 -22 -83 -15 l-63 7 -4 -42
c-2 -23 1 -46 7 -53 7 -8 5 -9 -7 -5 -12 4 -15 2 -11 -8 3 -8 8 -13 12 -11 3
2 7 -18 8 -45 2 -46 -8 -62 -23 -38 -3 6 0 15 7 20 11 7 9 9 -6 10 -19 1 -19
2 -1 6 15 4 16 7 5 14 -9 5 -14 26 -14 53 0 28 3 42 10 38 6 -4 6 -1 -1 9 -5
8 -9 24 -8 37 1 12 2 30 3 40 0 10 28 36 64 60 34 23 82 60 107 82 48 42 56
47 43 28z m-1213 -14 c0 -8 -5 -12 -10 -9 -6 4 -8 11 -5 16 9 14 15 11 15 -7z"/>
<path d="M130 2230 c-9 -6 -10 -10 -3 -10 6 0 15 5 18 10 8 12 4 12 -15 0z"/>
<path d="M313 2063 c4 -6 4 -13 0 -16 -5 -2 -2 -2 5 -1 7 2 12 -3 10 -13 -2
-9 3 -17 10 -19 7 -1 8 0 3 2 -6 3 -8 11 -5 18 3 7 -3 19 -12 27 -10 8 -15 9
-11 2z"/>
<path d="M360 2021 c0 -6 4 -11 9 -11 5 0 12 -8 14 -17 4 -15 5 -15 6 -2 0 9
-6 22 -14 29 -10 9 -15 9 -15 1z"/>
<path d="M411 1964 c0 -11 3 -14 6 -6 3 7 2 16 -1 19 -3 4 -6 -2 -5 -13z"/>
<path d="M435 1960 c-4 -6 -3 -10 2 -9 4 1 15 1 23 0 13 -1 13 -3 0 -12 -13
-9 -12 -10 2 -5 10 3 22 -2 27 -12 6 -9 11 -12 11 -6 0 22 -55 60 -65 44z"/>
<path d="M482 1410 c7 -11 17 -20 22 -20 5 0 1 9 -9 20 -10 11 -20 20 -22 20
-2 0 2 -9 9 -20z"/>
<path d="M493 1352 c-1 -22 0 -24 9 -8 6 10 6 22 2 26 -5 5 -10 -3 -11 -18z"/>
<path d="M365 889 c-4 -6 -4 -13 -1 -16 3 -4 6 -1 6 6 0 7 4 10 10 6 5 -3 8
-11 6 -18 -1 -7 -1 -9 1 -4 3 4 10 4 16 0 7 -3 3 3 -7 15 -22 25 -23 26 -31
11z"/>
<path d="M2080 640 c-9 -6 -10 -10 -3 -10 6 0 15 5 18 10 8 12 4 12 -15 0z"/>
<path d="M1430 376 c0 -2 7 -7 16 -10 8 -3 12 -2 9 4 -6 10 -25 14 -25 6z"/>
<path d="M280 310 c-9 -6 -10 -10 -3 -10 6 0 15 5 18 10 8 12 4 12 -15 0z"/>
<path d="M290 275 c0 -8 4 -15 10 -15 5 0 7 7 4 15 -4 8 -8 15 -10 15 -2 0 -4
-7 -4 -15z"/>
<path d="M300 239 c0 -5 5 -7 10 -4 6 3 10 8 10 11 0 2 -4 4 -10 4 -5 0 -10
-5 -10 -11z"/>
</g>
</svg>
